<svg id="kity_svg_6" xmlns="http://www.w3.org/2000/svg" xmlns:xlink="http://www.w3.org/1999/xlink" version="1.1" width="1063" height="901" style="background: rgb(251, 251, 251); display: inline;" viewBox="0 0 1063 901"><defs id="kity_defs_7"><linearGradient id="kity_linearGradient_17" x1="0" y1="0" x2="0" y2="1"><stop id="kity_stop_18" offset="0" stop-color="rgb(255, 255, 255)"></stop><stop id="kity_stop_19" offset="1" stop-color="rgb(204, 204, 204)"></stop></linearGradient><marker id="kity_marker_2" orient="auto" refX="6" refY="0" viewBox="-7 -7 14 14" markerWidth="7" markerHeight="7" markerUnits="userSpaceOnUse"><path id="kity_path_3" fill="rgb(115, 191, 118)" stroke="none" d="M6,0A6,6,0,1,1,-6,0A6,6,0,1,1,6,0"></path></marker></defs><g id="kity_g_8"><g id="minder1" text-rendering="optimize-speed"><g id="minder_connect_group1"><path id="kity_path_31" fill="none" stroke="rgb(115, 191, 118)" stroke-width="1" d="M398.5,305.5A115,237,0,0,1,513.5,68.5"></path><path id="kity_path_33" fill="none" stroke="rgb(115, 191, 118)" stroke-width="1" d="M609.5,68.5C612.5,68.5,612.5,41.5,615.5,41.5L683.5,41.5"></path><path id="kity_path_35" fill="none" stroke="rgb(115, 191, 118)" stroke-width="1" d="M609.5,68.5C612.5,68.5,612.5,67.5,615.5,67.5L719.5,67.5"></path><path id="kity_path_37" fill="none" stroke="rgb(115, 191, 118)" stroke-width="1" d="M609.5,68.5C612.5,68.5,612.5,93.5,615.5,93.5L683.5,93.5"></path><path id="kity_path_39" fill="none" stroke="rgb(115, 191, 118)" stroke-width="1" d="M398.5,305.5A113,176,0,0,0,511.5,481.5"></path><path id="kity_path_523" fill="none" stroke="rgb(115, 191, 118)" stroke-width="1" d="M398.5,305.5A115,69,0,0,0,283.5,236.5"></path><path id="kity_path_537" fill="none" stroke="rgb(115, 191, 118)" stroke-width="1" d="M398.5,305.5A115,64,0,0,1,283.5,369.5"></path><path id="kity_path_2217" fill="none" stroke="rgb(115, 191, 118)" stroke-width="1" d="M130.5,236.5C127.5,236.5,127.5,183.5,124.5,183.5L56.5,183.5"></path><path id="kity_path_2218" fill="none" stroke="rgb(115, 191, 118)" stroke-width="1" d="M130.5,236.5C127.5,236.5,127.5,209.5,124.5,209.5L80.5,209.5"></path><path id="kity_path_2219" fill="none" stroke="rgb(115, 191, 118)" stroke-width="1" d="M130.5,236.5C127.5,236.5,127.5,235.5,124.5,235.5L20.5,235.5"></path><path id="kity_path_2220" fill="none" stroke="rgb(115, 191, 118)" stroke-width="1" d="M130.5,236.5C127.5,236.5,127.5,261.5,124.5,261.5L60.5,261.5"></path><path id="kity_path_2221" fill="none" stroke="rgb(115, 191, 118)" stroke-width="1" d="M130.5,236.5C127.5,236.5,127.5,287.5,124.5,287.5L56.5,287.5"></path><path id="kity_path_2222" fill="none" stroke="rgb(115, 191, 118)" stroke-width="1" d="M130.5,236.5C127.5,236.5,127.5,313.5,124.5,313.5L56.5,313.5"></path><path id="kity_path_2264" fill="none" stroke="rgb(115, 191, 118)" stroke-width="1" d="M609.5,68.5C612.5,68.5,612.5,119.5,615.5,119.5L719.5,119.5"></path><path id="kity_path_2271" fill="none" stroke="rgb(115, 191, 118)" stroke-width="1" d="M186.5,369.5C183.5,369.5,183.5,355.5,180.5,355.5L112.5,355.5"></path><path id="kity_path_2272" fill="none" stroke="rgb(115, 191, 118)" stroke-width="1" d="M186.5,369.5C183.5,369.5,183.5,381.5,180.5,381.5L112.5,381.5"></path><path id="kity_path_2273" fill="none" stroke="rgb(115, 191, 118)" stroke-width="1" d="M186.5,369.5C183.5,369.5,183.5,407.5,180.5,407.5L112.5,407.5"></path><path id="kity_path_2279" fill="none" stroke="rgb(115, 191, 118)" stroke-width="1" d="M946.5,125.5C949.5,125.5,949.5,86.5,952.5,86.5L1020.5,86.5"></path><path id="kity_path_2280" fill="none" stroke="rgb(115, 191, 118)" stroke-width="1" d="M946.5,125.5C949.5,125.5,949.5,112.5,952.5,112.5L1008.5,112.5"></path><path id="kity_path_2281" fill="none" stroke="rgb(115, 191, 118)" stroke-width="1" d="M946.5,125.5C949.5,125.5,949.5,138.5,952.5,138.5L1020.5,138.5"></path><path id="kity_path_2282" fill="none" stroke="rgb(115, 191, 118)" stroke-width="1" d="M946.5,125.5C949.5,125.5,949.5,164.5,952.5,164.5L1020.5,164.5"></path><path id="kity_path_2283" fill="none" stroke="rgb(115, 191, 118)" stroke-width="1" d="M896.5,170.5C899.5,170.5,899.5,125.5,902.5,125.5L946.5,125.5"></path><path id="kity_path_2284" fill="none" stroke="rgb(115, 191, 118)" stroke-width="1" d="M946.5,216.5C949.5,216.5,949.5,190.5,952.5,190.5L1008.5,190.5"></path><path id="kity_path_2285" fill="none" stroke="rgb(115, 191, 118)" stroke-width="1" d="M946.5,216.5C949.5,216.5,949.5,216.5,952.5,216.5L1020.5,216.5"></path><path id="kity_path_2286" fill="none" stroke="rgb(115, 191, 118)" stroke-width="1" d="M946.5,216.5C949.5,216.5,949.5,242.5,952.5,242.5L1032.5,242.5"></path><path id="kity_path_2287" fill="none" stroke="rgb(115, 191, 118)" stroke-width="1" d="M896.5,170.5C899.5,170.5,899.5,216.5,902.5,216.5L946.5,216.5"></path><path id="kity_path_2288" fill="none" stroke="rgb(115, 191, 118)" stroke-width="1" d="M775.5,318.5C787,318.5,787,170.5,798.5,170.5L896.5,170.5"></path><path id="kity_path_2289" fill="none" stroke="rgb(115, 191, 118)" stroke-width="1" d="M897.5,324.5C900.5,324.5,900.5,285.5,903.5,285.5L959.5,285.5"></path><path id="kity_path_2290" fill="none" stroke="rgb(115, 191, 118)" stroke-width="1" d="M897.5,324.5C900.5,324.5,900.5,311.5,903.5,311.5L959.5,311.5"></path><path id="kity_path_2291" fill="none" stroke="rgb(115, 191, 118)" stroke-width="1" d="M897.5,324.5C900.5,324.5,900.5,337.5,903.5,337.5L959.5,337.5"></path><path id="kity_path_2292" fill="none" stroke="rgb(115, 191, 118)" stroke-width="1" d="M897.5,324.5C900.5,324.5,900.5,363.5,903.5,363.5L959.5,363.5"></path><path id="kity_path_2293" fill="none" stroke="rgb(115, 191, 118)" stroke-width="1" d="M775.5,318.5C787.5,318.5,787.5,324.5,799.5,324.5L897.5,324.5"></path><path id="kity_path_2294" fill="none" stroke="rgb(115, 191, 118)" stroke-width="1" d="M899.5,450.5C902.5,450.5,902.5,411.5,905.5,411.5L973.5,411.5"></path><path id="kity_path_2295" fill="none" stroke="rgb(115, 191, 118)" stroke-width="1" d="M899.5,450.5C902.5,450.5,902.5,437.5,905.5,437.5L973.5,437.5"></path><path id="kity_path_2296" fill="none" stroke="rgb(115, 191, 118)" stroke-width="1" d="M899.5,450.5C902.5,450.5,902.5,463.5,905.5,463.5L973.5,463.5"></path><path id="kity_path_2297" fill="none" stroke="rgb(115, 191, 118)" stroke-width="1" d="M899.5,450.5C902.5,450.5,902.5,489.5,905.5,489.5L973.5,489.5"></path><path id="kity_path_2298" fill="none" stroke="rgb(115, 191, 118)" stroke-width="1" d="M775.5,318.5C788.5,318.5,788.5,450.5,801.5,450.5L899.5,450.5"></path><path id="kity_path_2299" fill="none" stroke="rgb(115, 191, 118)" stroke-width="1" d="M636.5,481.5C661,481.5,661,318.5,685.5,318.5L775.5,318.5"></path><path id="kity_path_2304" fill="none" stroke="rgb(115, 191, 118)" stroke-width="1" d="M770.5,569.5C785,569.5,785,581.5,799.5,581.5L933.5,581.5"></path><path id="kity_path_2305" fill="none" stroke="rgb(115, 191, 118)" stroke-width="1" d="M636.5,481.5C658.5,481.5,658.5,569.5,680.5,569.5L770.5,569.5"></path><path id="kity_path_2306" fill="none" stroke="rgb(115, 191, 118)" stroke-width="1" d="M875.5,669.5C878.5,669.5,878.5,656.5,881.5,656.5L985.5,656.5"></path><path id="kity_path_2307" fill="none" stroke="rgb(115, 191, 118)" stroke-width="1" d="M875.5,669.5C878.5,669.5,878.5,682.5,881.5,682.5L985.5,682.5"></path><path id="kity_path_2308" fill="none" stroke="rgb(115, 191, 118)" stroke-width="1" d="M795.5,760.5C798.5,760.5,798.5,669.5,801.5,669.5L875.5,669.5"></path><path id="kity_path_2314" fill="none" stroke="rgb(115, 191, 118)" stroke-width="1" d="M795.5,760.5C798.5,760.5,798.5,768.5,801.5,768.5L875.5,768.5"></path><path id="kity_path_2317" fill="none" stroke="rgb(115, 191, 118)" stroke-width="1" d="M795.5,760.5C798,760.5,798,868.5,800.5,868.5L874.5,868.5"></path><path id="kity_path_2318" fill="none" stroke="rgb(115, 191, 118)" stroke-width="1" d="M636.5,481.5C671,481.5,671,760.5,705.5,760.5L795.5,760.5"></path><path id="kity_path_2319" fill="none" stroke="rgb(115, 191, 118)" stroke-width="1" d="M933.5,581.5C936.5,581.5,936.5,542.5,939.5,542.5L995.5,542.5"></path><path id="kity_path_2320" fill="none" stroke="rgb(115, 191, 118)" stroke-width="1" d="M933.5,581.5C936.5,581.5,936.5,568.5,939.5,568.5L995.5,568.5"></path><path id="kity_path_2321" fill="none" stroke="rgb(115, 191, 118)" stroke-width="1" d="M933.5,581.5C936.5,581.5,936.5,594.5,939.5,594.5L1043.5,594.5"></path><path id="kity_path_2322" fill="none" stroke="rgb(115, 191, 118)" stroke-width="1" d="M933.5,581.5C936.5,581.5,936.5,620.5,939.5,620.5L1019.5,620.5"></path><path id="kity_path_2330" fill="none" stroke="rgb(115, 191, 118)" stroke-width="1" d="M874.5,868.5C877.5,868.5,877.5,855.5,880.5,855.5L960.5,855.5"></path><path id="kity_path_2331" fill="none" stroke="rgb(115, 191, 118)" stroke-width="1" d="M874.5,868.5C877.5,868.5,877.5,881.5,880.5,881.5L960.5,881.5"></path><path id="kity_path_2332" fill="none" stroke="rgb(115, 191, 118)" stroke-width="1" d="M875.5,768.5C878.5,768.5,878.5,716.5,881.5,716.5L961.5,716.5"></path><path id="kity_path_2333" fill="none" stroke="rgb(115, 191, 118)" stroke-width="1" d="M875.5,768.5C878.5,768.5,878.5,742.5,881.5,742.5L961.5,742.5"></path><path id="kity_path_2334" fill="none" stroke="rgb(115, 191, 118)" stroke-width="1" d="M875.5,768.5C878.5,768.5,878.5,768.5,881.5,768.5L949.5,768.5"></path><path id="kity_path_2335" fill="none" stroke="rgb(115, 191, 118)" stroke-width="1" d="M875.5,768.5C878.5,768.5,878.5,794.5,881.5,794.5L961.5,794.5"></path><path id="kity_path_2336" fill="none" stroke="rgb(115, 191, 118)" stroke-width="1" d="M875.5,768.5C878.5,768.5,878.5,820.5,881.5,820.5L961.5,820.5"></path></g><g id="minder_node1"><path id="kity_path_2278" fill="rgba(0, 0, 0, .25)" stroke="none" d="M312.5,288.5h150a22,22,0,0,1,22,22v0a22,22,0,0,1,-22,22h-150a22,22,0,0,1,-22,-22v0a22,22,0,0,1,22,-22z" display="none"></path><path id="node_outline1" fill="rgb(115, 191, 118)" stroke="rgb(115, 191, 118)" d="M304.5,291.5h188a5,5,0,0,1,5,5v18a5,5,0,0,1,-5,5h-188a5,5,0,0,1,-5,-5v-18a5,5,0,0,1,5,-5z" stroke-width="3"></path><g id="node_text1" fill="white"><text id="kity_text_22" text-rendering="inherit" font-size="16" dy=".8em" y="295.09999990463257" x="311.5">爬取舆情站点--一期工程</text></g></g><g id="kity_g_14" display="none"><path id="kity_path_15" fill="rgba(0, 153, 5, 0.5)" stroke="none" d="M886.5,118.5h58v4h-58z"></path><path id="kity_path_16" fill="none" stroke="rgb(0, 128, 4)" d="M886.5,122.5L944.5,122.5" stroke-width="1"></path></g><g id="minder_node2"><path id="kity_path_2274" fill="rgba(0, 0, 0, .25)" stroke="none" d="M534.5,60.5h72a10,10,0,0,1,10,10v6a10,10,0,0,1,-10,10h-72a10,10,0,0,1,-10,-10v-6a10,10,0,0,1,10,-10z" display="none"></path><g id="node_expander4" style="cursor: pointer;"><path id="kity_path_1355" fill="white" stroke="gray" d="M514.5,68.5A6,6,0,1,1,502.5,68.5A6,6,0,1,1,514.5,68.5"></path><path id="kity_path_1356" fill="none" stroke="gray" d="M504,68.5L513,68.5"></path></g><path id="node_outline5" fill="rgb(238, 246, 238)" stroke="rgb(115, 191, 118)" d="M518.5,55.5h88a3,3,0,0,1,3,3v20a3,3,0,0,1,-3,3h-88a3,3,0,0,1,-3,-3v-20a3,3,0,0,1,3,-3z" stroke-width="1"></path><g id="node_text5" fill="black"><text id="kity_text_563" text-rendering="inherit" font-size="14" dy=".8em" font-weight="bold" y="59.40000009536743" x="535.5">1 BBS类</text></g></g><g id="minder_node3"><g id="node_expander1" style="cursor: pointer;" display="none"><path id="kity_path_1346" fill="white" stroke="gray" d="M625.5,29.5A6,6,0,1,1,613.5,29.5A6,6,0,1,1,625.5,29.5"></path><path id="kity_path_1347" fill="none" stroke="gray"></path></g><path id="node_outline2" fill="none" stroke="none" d="M630.5,20.5h48a5,5,0,0,1,5,5v8a5,5,0,0,1,-5,5h-48a5,5,0,0,1,-5,-5v-8a5,5,0,0,1,5,-5z" stroke-width="3"></path><g id="node_text2" fill="black"><text id="kity_text_557" text-rendering="inherit" font-size="12" dy=".8em" y="21.700000047683716" x="630.5">天涯社区</text></g></g><g id="minder_node4"><g id="node_expander2" style="cursor: pointer;" display="none"><path id="kity_path_1349" fill="white" stroke="gray" d="M625.5,55.5A6,6,0,1,1,613.5,55.5A6,6,0,1,1,625.5,55.5"></path><path id="kity_path_1350" fill="none" stroke="gray"></path></g><path id="node_outline3" fill="none" stroke="none" d="M630.5,46.5h84a5,5,0,0,1,5,5v8a5,5,0,0,1,-5,5h-84a5,5,0,0,1,-5,-5v-8a5,5,0,0,1,5,-5z" stroke-width="3"></path><g id="node_text3" fill="black"><text id="kity_text_559" text-rendering="inherit" font-size="12" dy=".8em" y="47.700000047683716" x="630.5">人民网强国论坛</text></g></g><g id="minder_node5"><g id="node_expander3" style="cursor: pointer;" display="none"><path id="kity_path_1352" fill="white" stroke="gray" d="M625.5,81.5A6,6,0,1,1,613.5,81.5A6,6,0,1,1,625.5,81.5"></path><path id="kity_path_1353" fill="none" stroke="gray"></path></g><path id="node_outline4" fill="none" stroke="none" d="M630.5,72.5h48a5,5,0,0,1,5,5v8a5,5,0,0,1,-5,5h-48a5,5,0,0,1,-5,-5v-8a5,5,0,0,1,5,-5z" stroke-width="3"></path><g id="node_text4" fill="black"><text id="kity_text_561" text-rendering="inherit" font-size="12" dy=".8em" y="73.70000004768372" x="630.5">凯迪社区</text></g></g><g id="minder_node6" opacity="1"><path id="kity_path_2275" fill="rgba(0, 0, 0, .25)" stroke="none" d="M532.5,473.5h105a10,10,0,0,1,10,10v6a10,10,0,0,1,-10,10h-105a10,10,0,0,1,-10,-10v-6a10,10,0,0,1,10,-10z" display="none"></path><g id="node_expander246" style="cursor: pointer;"><path id="kity_path_2081" fill="white" stroke="gray" d="M512.5,481.5A6,6,0,1,1,500.5,481.5A6,6,0,1,1,512.5,481.5"></path><path id="kity_path_2082" fill="none" stroke="gray" d="M502,481.5L511,481.5"></path></g><path id="node_outline247" fill="rgb(238, 246, 238)" stroke="rgb(115, 191, 118)" d="M516.5,468.5h117a3,3,0,0,1,3,3v20a3,3,0,0,1,-3,3h-117a3,3,0,0,1,-3,-3v-20a3,3,0,0,1,3,-3z" stroke-width="1"></path><g id="node_text247" fill="black"><text id="kity_text_1047" text-rendering="inherit" font-size="14" dy=".8em" font-weight="bold" y="472.40000009536743" x="533.5">2 新闻媒体类</text></g></g><g id="minder_node248" opacity="1"><path id="kity_path_2276" fill="rgba(0, 0, 0, .25)" stroke="none" d="M149.5,228.5h137a10,10,0,0,1,10,10v6a10,10,0,0,1,-10,10h-137a10,10,0,0,1,-10,-10v-6a10,10,0,0,1,10,-10z" display="none"></path><g id="node_expander253" style="cursor: pointer;"><path id="kity_path_2102" fill="white" stroke="gray" d="M294.5,236.5A6,6,0,1,1,282.5,236.5A6,6,0,1,1,294.5,236.5"></path><path id="kity_path_2103" fill="none" stroke="gray" d="M284,236.5L293,236.5"></path></g><path id="node_outline254" fill="rgb(238, 246, 238)" stroke="rgb(115, 191, 118)" d="M133.5,223.5h145a3,3,0,0,1,3,3v20a3,3,0,0,1,-3,3h-145a3,3,0,0,1,-3,-3v-20a3,3,0,0,1,3,-3z" stroke-width="1"></path><g id="node_text254" fill="black"><text id="kity_text_1061" text-rendering="inherit" font-size="14" dy=".8em" font-weight="bold" y="227.40000009536743" x="150.5">3 社交类（重点）</text></g></g><g id="minder_node255" opacity="1"><path id="kity_path_2277" fill="rgba(0, 0, 0, .25)" stroke="none" d="M205.5,361.5h73a10,10,0,0,1,10,10v6a10,10,0,0,1,-10,10h-73a10,10,0,0,1,-10,-10v-6a10,10,0,0,1,10,-10z" display="none"></path><g id="node_expander257" style="cursor: pointer;"><path id="kity_path_2114" fill="white" stroke="gray" d="M294.5,369.5A6,6,0,1,1,282.5,369.5A6,6,0,1,1,294.5,369.5"></path><path id="kity_path_2115" fill="none" stroke="gray" d="M284,369.5L293,369.5"></path></g><path id="node_outline258" fill="rgb(238, 246, 238)" stroke="rgb(115, 191, 118)" d="M189.5,356.5h89a3,3,0,0,1,3,3v20a3,3,0,0,1,-3,3h-89a3,3,0,0,1,-3,-3v-20a3,3,0,0,1,3,-3z" stroke-width="1"></path><g id="node_text258" fill="black"><text id="kity_text_1069" text-rendering="inherit" font-size="14" dy=".8em" font-weight="bold" y="360.40000009536743" x="206.5">4 博客类</text></g></g><g id="minder_node249"><g id="node_expander247" style="cursor: pointer;" display="none"><path id="kity_path_2084" fill="white" stroke="gray" d="M126.5,171.5A6,6,0,1,1,114.5,171.5A6,6,0,1,1,126.5,171.5"></path><path id="kity_path_2085" fill="none" stroke="gray"></path></g><path id="node_outline248" fill="none" stroke="none" d="M61.5,162.5h48a5,5,0,0,1,5,5v8a5,5,0,0,1,-5,5h-48a5,5,0,0,1,-5,-5v-8a5,5,0,0,1,5,-5z"></path><g id="node_text248" fill="black"><text id="kity_text_1049" text-rendering="inherit" font-size="12" dy=".8em" y="163.70000004768372" x="61.5">新浪微博</text></g></g><g id="minder_node250"><g id="node_expander248" style="cursor: pointer;" display="none"><path id="kity_path_2087" fill="white" stroke="gray" d="M126.5,197.5A6,6,0,1,1,114.5,197.5A6,6,0,1,1,126.5,197.5"></path><path id="kity_path_2088" fill="none" stroke="gray"></path></g><path id="node_outline249" fill="none" stroke="none" d="M85.5,188.5h24a5,5,0,0,1,5,5v8a5,5,0,0,1,-5,5h-24a5,5,0,0,1,-5,-5v-8a5,5,0,0,1,5,-5z"></path><g id="node_text249" fill="black"><text id="kity_text_1051" text-rendering="inherit" font-size="12" dy=".8em" y="189.70000004768372" x="85.5">豆瓣</text></g></g><g id="minder_node251"><g id="node_expander249" style="cursor: pointer;" display="none"><path id="kity_path_2090" fill="white" stroke="gray" d="M126.5,223.5A6,6,0,1,1,114.5,223.5A6,6,0,1,1,126.5,223.5"></path><path id="kity_path_2091" fill="none" stroke="gray"></path></g><path id="node_outline250" fill="none" stroke="none" d="M25.5,214.5h84a5,5,0,0,1,5,5v8a5,5,0,0,1,-5,5h-84a5,5,0,0,1,-5,-5v-8a5,5,0,0,1,5,-5z" stroke-width="3"></path><g id="node_text250" fill="black"><text id="kity_text_1053" text-rendering="inherit" font-size="12" dy=".8em" y="215.70000004768372" x="25.5">微信公众号文章</text></g></g><g id="minder_node252"><g id="node_expander250" style="cursor: pointer;" display="none"><path id="kity_path_2093" fill="white" stroke="gray" d="M126.5,249.5A6,6,0,1,1,114.5,249.5A6,6,0,1,1,126.5,249.5"></path><path id="kity_path_2094" fill="none" stroke="gray"></path></g><path id="node_outline251" fill="none" stroke="none" d="M65.5,240.5h44a5,5,0,0,1,5,5v8a5,5,0,0,1,-5,5h-44a5,5,0,0,1,-5,-5v-8a5,5,0,0,1,5,-5z"></path><g id="node_text251" fill="black"><text id="kity_text_1055" text-rendering="inherit" font-size="12" dy=".8em" y="241.70000004768372" x="65.5">QQ空间</text></g></g><g id="minder_node253"><g id="node_expander251" style="cursor: pointer;" display="none"><path id="kity_path_2096" fill="white" stroke="gray" d="M126.5,275.5A6,6,0,1,1,114.5,275.5A6,6,0,1,1,126.5,275.5"></path><path id="kity_path_2097" fill="none" stroke="gray"></path></g><path id="node_outline252" fill="none" stroke="none" d="M61.5,266.5h48a5,5,0,0,1,5,5v8a5,5,0,0,1,-5,5h-48a5,5,0,0,1,-5,-5v-8a5,5,0,0,1,5,-5z"></path><g id="node_text252" fill="black"><text id="kity_text_1057" text-rendering="inherit" font-size="12" dy=".8em" y="267.7000000476837" x="61.5">腾讯微博</text></g></g><g id="minder_node254"><g id="node_expander252" style="cursor: pointer;" display="none"><path id="kity_path_2099" fill="white" stroke="gray" d="M126.5,301.5A6,6,0,1,1,114.5,301.5A6,6,0,1,1,126.5,301.5"></path><path id="kity_path_2100" fill="none" stroke="gray"></path></g><path id="node_outline253" fill="none" stroke="none" d="M61.5,292.5h48a5,5,0,0,1,5,5v8a5,5,0,0,1,-5,5h-48a5,5,0,0,1,-5,-5v-8a5,5,0,0,1,5,-5z"></path><g id="node_text253" fill="black"><text id="kity_text_1059" text-rendering="inherit" font-size="12" dy=".8em" y="293.7000000476837" x="61.5">人民微博</text></g></g><g id="kity_g_12" display="none"><path id="kity_path_13" fill="none" stroke="rgb(66, 112, 68)" d="M891.5,127.5h48a5,5,0,0,1,5,5v8a5,5,0,0,1,-5,5h-48a5,5,0,0,1,-5,-5v-8a5,5,0,0,1,5,-5z" stroke-width="5"></path></g><g id="minder_node273"><g id="node_expander272" style="cursor: pointer;" display="none"><path id="kity_path_2269" fill="white" stroke="gray" d="M625.5,107.5A6,6,0,1,1,613.5,107.5A6,6,0,1,1,625.5,107.5"></path><path id="kity_path_2270" fill="none" stroke="gray"></path></g><path id="node_outline273" fill="none" stroke="none" d="M630.5,98.5h84a5,5,0,0,1,5,5v8a5,5,0,0,1,-5,5h-84a5,5,0,0,1,-5,-5v-8a5,5,0,0,1,5,-5z" stroke-width="3"></path><g id="node_text273" fill="black"><text id="kity_text_2266" text-rendering="inherit" font-size="12" dy=".8em" y="99.70000004768372" x="630.5">新华网发展论坛</text></g></g><g id="minder_node256"><g id="node_expander254" style="cursor: pointer;" display="none"><path id="kity_path_2105" fill="white" stroke="gray" d="M182.5,343.5A6,6,0,1,1,170.5,343.5A6,6,0,1,1,182.5,343.5"></path><path id="kity_path_2106" fill="none" stroke="gray"></path></g><path id="node_outline255" fill="none" stroke="none" d="M117.5,334.5h48a5,5,0,0,1,5,5v8a5,5,0,0,1,-5,5h-48a5,5,0,0,1,-5,-5v-8a5,5,0,0,1,5,-5z" stroke-width="3"></path><g id="node_text255" fill="black"><text id="kity_text_1063" text-rendering="inherit" font-size="12" dy=".8em" y="335.7000000476837" x="117.5">博客中国</text></g></g><g id="minder_node257"><g id="node_expander255" style="cursor: pointer;" display="none"><path id="kity_path_2108" fill="white" stroke="gray" d="M182.5,369.5A6,6,0,1,1,170.5,369.5A6,6,0,1,1,182.5,369.5"></path><path id="kity_path_2109" fill="none" stroke="gray"></path></g><path id="node_outline256" fill="none" stroke="none" d="M117.5,360.5h48a5,5,0,0,1,5,5v8a5,5,0,0,1,-5,5h-48a5,5,0,0,1,-5,-5v-8a5,5,0,0,1,5,-5z" stroke-width="3"></path><g id="node_text256" fill="black"><text id="kity_text_1065" text-rendering="inherit" font-size="12" dy=".8em" y="361.7000000476837" x="117.5">新浪博客</text></g></g><g id="minder_node258"><g id="node_expander256" style="cursor: pointer;" display="none"><path id="kity_path_2111" fill="white" stroke="gray" d="M182.5,395.5A6,6,0,1,1,170.5,395.5A6,6,0,1,1,182.5,395.5"></path><path id="kity_path_2112" fill="none" stroke="gray"></path></g><path id="node_outline257" fill="none" stroke="none" d="M117.5,386.5h48a5,5,0,0,1,5,5v8a5,5,0,0,1,-5,5h-48a5,5,0,0,1,-5,-5v-8a5,5,0,0,1,5,-5z" stroke-width="3"></path><g id="node_text257" fill="black"><text id="kity_text_1067" text-rendering="inherit" font-size="12" dy=".8em" y="387.7000000476837" x="117.5">天涯博客</text></g></g><g id="minder_node16"><g id="node_expander11" style="cursor: pointer;" display="none"><path id="kity_path_1376" fill="white" stroke="gray" d="M962.5,74.5A6,6,0,1,1,950.5,74.5A6,6,0,1,1,962.5,74.5"></path><path id="kity_path_1377" fill="none" stroke="gray"></path></g><path id="node_outline12" fill="none" stroke="none" d="M967.5,65.5h48a5,5,0,0,1,5,5v8a5,5,0,0,1,-5,5h-48a5,5,0,0,1,-5,-5v-8a5,5,0,0,1,5,-5z" stroke-width="3"></path><g id="node_text12" fill="black"><text id="kity_text_577" text-rendering="inherit" font-size="12" dy=".8em" y="66.70000004768372" x="967.5">京华时报</text></g></g><g id="minder_node17"><g id="node_expander12" style="cursor: pointer;" display="none"><path id="kity_path_1379" fill="white" stroke="gray" d="M962.5,100.5A6,6,0,1,1,950.5,100.5A6,6,0,1,1,962.5,100.5"></path><path id="kity_path_1380" fill="none" stroke="gray"></path></g><path id="node_outline13" fill="none" stroke="none" d="M967.5,91.5h36a5,5,0,0,1,5,5v8a5,5,0,0,1,-5,5h-36a5,5,0,0,1,-5,-5v-8a5,5,0,0,1,5,-5z" stroke-width="3"></path><g id="node_text13" fill="black"><text id="kity_text_579" text-rendering="inherit" font-size="12" dy=".8em" y="92.70000004768372" x="967.5">北青网</text></g></g><g id="minder_node18"><g id="node_expander13" style="cursor: pointer;" display="none"><path id="kity_path_1382" fill="white" stroke="gray" d="M962.5,126.5A6,6,0,1,1,950.5,126.5A6,6,0,1,1,962.5,126.5"></path><path id="kity_path_1383" fill="none" stroke="gray" d="M952,126.5L961,126.5"></path></g><path id="node_outline14" fill="none" stroke="none" d="M967.5,117.5h48a5,5,0,0,1,5,5v8a5,5,0,0,1,-5,5h-48a5,5,0,0,1,-5,-5v-8a5,5,0,0,1,5,-5z" stroke-width="3"></path><g id="node_text14" fill="black"><text id="kity_text_581" text-rendering="inherit" font-size="12" dy=".8em" y="118.70000004768372" x="967.5">北京日报</text></g></g><g id="minder_node271"><g id="node_expander270" style="cursor: pointer;" display="none"><path id="kity_path_2253" fill="white" stroke="gray" d="M962.5,152.5A6,6,0,1,1,950.5,152.5A6,6,0,1,1,962.5,152.5"></path><path id="kity_path_2254" fill="none" stroke="gray"></path></g><path id="node_outline271" fill="none" stroke="none" d="M967.5,143.5h48a5,5,0,0,1,5,5v8a5,5,0,0,1,-5,5h-48a5,5,0,0,1,-5,-5v-8a5,5,0,0,1,5,-5z" stroke-width="3"></path><g id="node_text271" fill="black"><text id="kity_text_2250" text-rendering="inherit" font-size="12" dy=".8em" y="144.70000004768372" x="967.5">京郊日报</text></g></g><g id="minder_node15"><g id="node_expander14" style="cursor: pointer;"><path id="kity_path_1385" fill="white" stroke="gray" d="M912.5,113.5A6,6,0,1,1,900.5,113.5A6,6,0,1,1,912.5,113.5"></path><path id="kity_path_1386" fill="none" stroke="gray" d="M902,113.5L911,113.5"></path></g><path id="node_outline15" fill="none" stroke="none" d="M917.5,104.5h24a5,5,0,0,1,5,5v8a5,5,0,0,1,-5,5h-24a5,5,0,0,1,-5,-5v-8a5,5,0,0,1,5,-5z" stroke-width="3"></path><g id="node_text15" fill="black"><text id="kity_text_583" text-rendering="inherit" font-size="12" dy=".8em" y="105.70000004768372" x="917.5">北京</text></g></g><g id="minder_node20"><g id="node_expander15" style="cursor: pointer;" display="none"><path id="kity_path_1388" fill="white" stroke="gray" d="M962.5,178.5A6,6,0,1,1,950.5,178.5A6,6,0,1,1,962.5,178.5"></path><path id="kity_path_1389" fill="none" stroke="gray"></path></g><path id="node_outline16" fill="none" stroke="none" d="M967.5,169.5h36a5,5,0,0,1,5,5v8a5,5,0,0,1,-5,5h-36a5,5,0,0,1,-5,-5v-8a5,5,0,0,1,5,-5z"></path><g id="node_text16" fill="black"><text id="kity_text_585" text-rendering="inherit" font-size="12" dy=".8em" y="170.70000004768372" x="967.5">华商网</text></g></g><g id="minder_node21"><g id="node_expander16" style="cursor: pointer;" display="none"><path id="kity_path_1391" fill="white" stroke="gray" d="M962.5,204.5A6,6,0,1,1,950.5,204.5A6,6,0,1,1,962.5,204.5"></path><path id="kity_path_1392" fill="none" stroke="gray"></path></g><path id="node_outline17" fill="none" stroke="none" d="M967.5,195.5h48a5,5,0,0,1,5,5v8a5,5,0,0,1,-5,5h-48a5,5,0,0,1,-5,-5v-8a5,5,0,0,1,5,-5z"></path><g id="node_text17" fill="black"><text id="kity_text_587" text-rendering="inherit" font-size="12" dy=".8em" y="196.70000004768372" x="967.5">陕西日报</text></g></g><g id="minder_node22"><g id="node_expander17" style="cursor: pointer;" display="none"><path id="kity_path_1394" fill="white" stroke="gray" d="M962.5,230.5A6,6,0,1,1,950.5,230.5A6,6,0,1,1,962.5,230.5"></path><path id="kity_path_1395" fill="none" stroke="gray"></path></g><path id="node_outline18" fill="none" stroke="none" d="M967.5,221.5h60a5,5,0,0,1,5,5v8a5,5,0,0,1,-5,5h-60a5,5,0,0,1,-5,-5v-8a5,5,0,0,1,5,-5z"></path><g id="node_text18" fill="black"><text id="kity_text_589" text-rendering="inherit" font-size="12" dy=".8em" y="222.70000004768372" x="967.5">三秦都市报</text></g></g><g id="minder_node19"><g id="node_expander18" style="cursor: pointer;"><path id="kity_path_1397" fill="white" stroke="gray" d="M912.5,204.5A6,6,0,1,1,900.5,204.5A6,6,0,1,1,912.5,204.5"></path><path id="kity_path_1398" fill="none" stroke="gray" d="M902,204.5L911,204.5"></path></g><path id="node_outline19" fill="none" stroke="none" d="M917.5,195.5h24a5,5,0,0,1,5,5v8a5,5,0,0,1,-5,5h-24a5,5,0,0,1,-5,-5v-8a5,5,0,0,1,5,-5z" stroke-width="3"></path><g id="node_text19" fill="black"><text id="kity_text_591" text-rendering="inherit" font-size="12" dy=".8em" y="196.70000004768372" x="917.5">陕西</text></g></g><g id="minder_node8"><g id="node_expander82" style="cursor: pointer;"><path id="kity_path_1589" fill="white" stroke="gray" d="M808.5,158.5A6,6,0,1,1,796.5,158.5A6,6,0,1,1,808.5,158.5"></path><path id="kity_path_1590" fill="none" stroke="gray" d="M798,158.5L807,158.5"></path></g><path id="node_outline83" fill="none" stroke="none" d="M813.5,149.5h78a5,5,0,0,1,5,5v8a5,5,0,0,1,-5,5h-78a5,5,0,0,1,-5,-5v-8a5,5,0,0,1,5,-5z" stroke-width="3"></path><g id="node_text83" fill="black"><text id="kity_text_719" text-rendering="inherit" font-size="12" dy=".8em" y="150.70000004768372" x="813.5">2.1.1 地方类型</text></g></g><g id="minder_node88"><g id="node_expander84" style="cursor: pointer;" display="none"><path id="kity_path_1595" fill="white" stroke="gray" d="M913.5,273.5A6,6,0,1,1,901.5,273.5A6,6,0,1,1,913.5,273.5"></path><path id="kity_path_1596" fill="none" stroke="gray"></path></g><path id="node_outline85" fill="none" stroke="none" d="M918.5,264.5h36a5,5,0,0,1,5,5v8a5,5,0,0,1,-5,5h-36a5,5,0,0,1,-5,-5v-8a5,5,0,0,1,5,-5z" stroke-width="3"></path><g id="node_text85" fill="black"><text id="kity_text_723" text-rendering="inherit" font-size="12" dy=".8em" y="265.7000000476837" x="918.5">人民网</text></g></g><g id="minder_node90"><g id="node_expander86" style="cursor: pointer;" display="none"><path id="kity_path_1601" fill="white" stroke="gray" d="M913.5,299.5A6,6,0,1,1,901.5,299.5A6,6,0,1,1,913.5,299.5"></path><path id="kity_path_1602" fill="none" stroke="gray"></path></g><path id="node_outline87" fill="none" stroke="none" d="M918.5,290.5h36a5,5,0,0,1,5,5v8a5,5,0,0,1,-5,5h-36a5,5,0,0,1,-5,-5v-8a5,5,0,0,1,5,-5z" stroke-width="3"></path><g id="node_text87" fill="black"><text id="kity_text_727" text-rendering="inherit" font-size="12" dy=".8em" y="291.7000000476837" x="918.5">光明网</text></g></g><g id="minder_node268"><g id="node_expander267" style="cursor: pointer;" display="none"><path id="kity_path_2229" fill="white" stroke="gray" d="M913.5,325.5A6,6,0,1,1,901.5,325.5A6,6,0,1,1,913.5,325.5"></path><path id="kity_path_2230" fill="none" stroke="gray"></path></g><path id="node_outline268" fill="none" stroke="none" d="M918.5,316.5h36a5,5,0,0,1,5,5v8a5,5,0,0,1,-5,5h-36a5,5,0,0,1,-5,-5v-8a5,5,0,0,1,5,-5z" stroke-width="3"></path><g id="node_text268" fill="black"><text id="kity_text_2226" text-rendering="inherit" font-size="12" dy=".8em" y="317.7000000476837" x="918.5">新华网</text></g></g><g id="minder_node270"><g id="node_expander269" style="cursor: pointer;" display="none"><path id="kity_path_2245" fill="white" stroke="gray" d="M913.5,351.5A6,6,0,1,1,901.5,351.5A6,6,0,1,1,913.5,351.5"></path><path id="kity_path_2246" fill="none" stroke="gray"></path></g><path id="node_outline270" fill="none" stroke="none" d="M918.5,342.5h36a5,5,0,0,1,5,5v8a5,5,0,0,1,-5,5h-36a5,5,0,0,1,-5,-5v-8a5,5,0,0,1,5,-5z" stroke-width="3"></path><g id="node_text270" fill="black"><text id="kity_text_2242" text-rendering="inherit" font-size="12" dy=".8em" y="343.7000000476837" x="918.5">央视网</text></g></g><g id="minder_node86"><g id="node_expander103" style="cursor: pointer;"><path id="kity_path_1652" fill="white" stroke="gray" d="M809.5,312.5A6,6,0,1,1,797.5,312.5A6,6,0,1,1,809.5,312.5"></path><path id="kity_path_1653" fill="none" stroke="gray" d="M799,312.5L808,312.5"></path></g><path id="node_outline104" fill="none" stroke="none" d="M814.5,303.5h78a5,5,0,0,1,5,5v8a5,5,0,0,1,-5,5h-78a5,5,0,0,1,-5,-5v-8a5,5,0,0,1,5,-5z" stroke-width="3"></path><g id="node_text104" fill="black"><text id="kity_text_761" text-rendering="inherit" font-size="12" dy=".8em" y="304.7000000476837" x="814.5">2.1.2 官方类型</text></g></g><g id="minder_node108"><g id="node_expander104" style="cursor: pointer;" display="none"><path id="kity_path_1655" fill="white" stroke="gray" d="M915.5,399.5A6,6,0,1,1,903.5,399.5A6,6,0,1,1,915.5,399.5"></path><path id="kity_path_1656" fill="none" stroke="gray"></path></g><path id="node_outline105" fill="none" stroke="none" d="M920.5,390.5h48a5,5,0,0,1,5,5v8a5,5,0,0,1,-5,5h-48a5,5,0,0,1,-5,-5v-8a5,5,0,0,1,5,-5z" stroke-width="3"></path><g id="node_text105" fill="black"><text id="kity_text_763" text-rendering="inherit" font-size="12" dy=".8em" y="391.7000000476837" x="920.5">凤凰新闻</text></g></g><g id="minder_node109"><g id="node_expander105" style="cursor: pointer;" display="none"><path id="kity_path_1658" fill="white" stroke="gray" d="M915.5,425.5A6,6,0,1,1,903.5,425.5A6,6,0,1,1,915.5,425.5"></path><path id="kity_path_1659" fill="none" stroke="gray"></path></g><path id="node_outline106" fill="none" stroke="none" d="M920.5,416.5h48a5,5,0,0,1,5,5v8a5,5,0,0,1,-5,5h-48a5,5,0,0,1,-5,-5v-8a5,5,0,0,1,5,-5z" stroke-width="3"></path><g id="node_text106" fill="black"><text id="kity_text_765" text-rendering="inherit" font-size="12" dy=".8em" y="417.7000000476837" x="920.5">新浪新闻</text></g></g><g id="minder_node110"><g id="node_expander106" style="cursor: pointer;" display="none"><path id="kity_path_1661" fill="white" stroke="gray" d="M915.5,451.5A6,6,0,1,1,903.5,451.5A6,6,0,1,1,915.5,451.5"></path><path id="kity_path_1662" fill="none" stroke="gray"></path></g><path id="node_outline107" fill="none" stroke="none" d="M920.5,442.5h48a5,5,0,0,1,5,5v8a5,5,0,0,1,-5,5h-48a5,5,0,0,1,-5,-5v-8a5,5,0,0,1,5,-5z" stroke-width="3"></path><g id="node_text107" fill="black"><text id="kity_text_767" text-rendering="inherit" font-size="12" dy=".8em" y="443.7000000476837" x="920.5">搜狐新闻</text></g></g><g id="minder_node269"><g id="node_expander268" style="cursor: pointer;" display="none"><path id="kity_path_2237" fill="white" stroke="gray" d="M915.5,477.5A6,6,0,1,1,903.5,477.5A6,6,0,1,1,915.5,477.5"></path><path id="kity_path_2238" fill="none" stroke="gray"></path></g><path id="node_outline269" fill="none" stroke="none" d="M920.5,468.5h48a5,5,0,0,1,5,5v8a5,5,0,0,1,-5,5h-48a5,5,0,0,1,-5,-5v-8a5,5,0,0,1,5,-5z" stroke-width="3"></path><g id="node_text269" fill="black"><text id="kity_text_2234" text-rendering="inherit" font-size="12" dy=".8em" y="469.7000000476837" x="920.5">网易新闻</text></g></g><g id="minder_node107"><g id="node_expander117" style="cursor: pointer;"><path id="kity_path_1694" fill="white" stroke="gray" d="M811.5,438.5A6,6,0,1,1,799.5,438.5A6,6,0,1,1,811.5,438.5"></path><path id="kity_path_1695" fill="none" stroke="gray" d="M801,438.5L810,438.5"></path></g><path id="node_outline118" fill="none" stroke="none" d="M816.5,429.5h78a5,5,0,0,1,5,5v8a5,5,0,0,1,-5,5h-78a5,5,0,0,1,-5,-5v-8a5,5,0,0,1,5,-5z" stroke-width="3"></path><g id="node_text118" fill="black"><text id="kity_text_789" text-rendering="inherit" font-size="12" dy=".8em" y="430.7000000476837" x="816.5">2.1.3 商业门户</text></g></g><g id="minder_node7"><g id="node_expander118" style="cursor: pointer;"><path id="kity_path_1697" fill="white" stroke="gray" d="M695.5,306.5A6,6,0,1,1,683.5,306.5A6,6,0,1,1,695.5,306.5"></path><path id="kity_path_1698" fill="none" stroke="gray" d="M685,306.5L694,306.5"></path></g><path id="node_outline119" fill="none" stroke="none" d="M700.5,297.5h70a5,5,0,0,1,5,5v8a5,5,0,0,1,-5,5h-70a5,5,0,0,1,-5,-5v-8a5,5,0,0,1,5,-5z"></path><g id="node_text119" fill="black"><text id="kity_text_791" text-rendering="inherit" font-size="12" dy=".8em" font-weight="bold" y="298.7000000476837" x="700.5">2.1 综合类型</text></g></g><g id="minder_node122" opacity="1"><g id="node_expander200" style="cursor: pointer;"><path id="kity_path_1943" fill="white" stroke="gray" d="M809.5,569.5A6,6,0,1,1,797.5,569.5A6,6,0,1,1,809.5,569.5"></path><path id="kity_path_1944" fill="none" stroke="gray" d="M799,569.5L808,569.5"></path></g><path id="node_outline201" fill="none" stroke="none" d="M814.5,560.5h114a5,5,0,0,1,5,5v8a5,5,0,0,1,-5,5h-114a5,5,0,0,1,-5,-5v-8a5,5,0,0,1,5,-5z" stroke-width="3"></path><g id="node_text201" fill="black"><text id="kity_text_955" text-rendering="inherit" font-size="12" dy=".8em" y="561.7000000476837" x="814.5">2.2.1 国务院部门网站</text></g></g><g id="minder_node121"><g id="node_expander202" style="cursor: pointer;"><path id="kity_path_1949" fill="white" stroke="gray" d="M690.5,557.5A6,6,0,1,1,678.5,557.5A6,6,0,1,1,690.5,557.5"></path><path id="kity_path_1950" fill="none" stroke="gray" d="M680,557.5L689,557.5"></path></g><path id="node_outline203" fill="none" stroke="none" d="M695.5,548.5h70a5,5,0,0,1,5,5v8a5,5,0,0,1,-5,5h-70a5,5,0,0,1,-5,-5v-8a5,5,0,0,1,5,-5z" stroke-width="3"></path><g id="node_text203" fill="black"><text id="kity_text_959" text-rendering="inherit" font-size="12" dy=".8em" font-weight="bold" y="549.7000000476837" x="695.5">2.2 政府新闻</text></g></g><g id="minder_node215"><g id="node_expander211" style="cursor: pointer;" display="none"><path id="kity_path_1976" fill="white" stroke="gray" d="M891.5,644.5A6,6,0,1,1,879.5,644.5A6,6,0,1,1,891.5,644.5"></path><path id="kity_path_1977" fill="none" stroke="gray"></path></g><path id="node_outline212" fill="none" stroke="none" d="M896.5,635.5h84a5,5,0,0,1,5,5v8a5,5,0,0,1,-5,5h-84a5,5,0,0,1,-5,-5v-8a5,5,0,0,1,5,-5z"></path><g id="node_text212" fill="black"><text id="kity_text_977" text-rendering="inherit" font-size="12" dy=".8em" y="636.7000000476837" x="896.5">中国社会新闻网</text></g></g><g id="minder_node216"><g id="node_expander212" style="cursor: pointer;" display="none"><path id="kity_path_1979" fill="white" stroke="gray" d="M891.5,670.5A6,6,0,1,1,879.5,670.5A6,6,0,1,1,891.5,670.5"></path><path id="kity_path_1980" fill="none" stroke="gray"></path></g><path id="node_outline213" fill="none" stroke="none" d="M896.5,661.5h84a5,5,0,0,1,5,5v8a5,5,0,0,1,-5,5h-84a5,5,0,0,1,-5,-5v-8a5,5,0,0,1,5,-5z"></path><g id="node_text213" fill="black"><text id="kity_text_979" text-rendering="inherit" font-size="12" dy=".8em" y="662.7000000476837" x="896.5">社会新闻资讯网</text></g></g><g id="minder_node214"><g id="node_expander213" style="cursor: pointer;"><path id="kity_path_1982" fill="white" stroke="gray" d="M811.5,657.5A6,6,0,1,1,799.5,657.5A6,6,0,1,1,811.5,657.5"></path><path id="kity_path_1983" fill="none" stroke="gray" d="M801,657.5L810,657.5"></path></g><path id="node_outline214" fill="none" stroke="none" d="M816.5,648.5h54a5,5,0,0,1,5,5v8a5,5,0,0,1,-5,5h-54a5,5,0,0,1,-5,-5v-8a5,5,0,0,1,5,-5z" stroke-width="3"></path><g id="node_text214" fill="black"><text id="kity_text_981" text-rendering="inherit" font-size="12" dy=".8em" y="649.7000000476837" x="816.5">2.3.1 社会</text></g></g><g id="minder_node235" opacity="1"><g id="node_expander237" style="cursor: pointer;"><path id="kity_path_2054" fill="white" stroke="gray" d="M811.5,756.5A6,6,0,1,1,799.5,756.5A6,6,0,1,1,811.5,756.5"></path><path id="kity_path_2055" fill="none" stroke="gray" d="M801,756.5L810,756.5"></path></g><path id="node_outline238" fill="none" stroke="none" d="M816.5,747.5h54a5,5,0,0,1,5,5v8a5,5,0,0,1,-5,5h-54a5,5,0,0,1,-5,-5v-8a5,5,0,0,1,5,-5z" stroke-width="3"></path><g id="node_text238" fill="black"><text id="kity_text_1029" text-rendering="inherit" font-size="12" dy=".8em" y="748.7000000476837" x="816.5">2.3.2 财经</text></g></g><g id="minder_node245" opacity="1"><g id="node_expander244" style="cursor: pointer;"><path id="kity_path_2075" fill="white" stroke="gray" d="M810.5,856.5A6,6,0,1,1,798.5,856.5A6,6,0,1,1,810.5,856.5"></path><path id="kity_path_2076" fill="none" stroke="gray" d="M800,856.5L809,856.5"></path></g><path id="node_outline245" fill="none" stroke="none" d="M815.5,847.5h54a5,5,0,0,1,5,5v8a5,5,0,0,1,-5,5h-54a5,5,0,0,1,-5,-5v-8a5,5,0,0,1,5,-5z" stroke-width="3"></path><g id="node_text245" fill="black"><text id="kity_text_1043" text-rendering="inherit" font-size="12" dy=".8em" y="848.7000000476837" x="815.5">2.3.3 科技</text></g></g><g id="minder_node205" opacity="1"><g id="node_expander245" style="cursor: pointer;"><path id="kity_path_2078" fill="white" stroke="gray" d="M715.5,748.5A6,6,0,1,1,703.5,748.5A6,6,0,1,1,715.5,748.5"></path><path id="kity_path_2079" fill="none" stroke="gray" d="M705,748.5L714,748.5"></path></g><path id="node_outline246" fill="none" stroke="none" d="M720.5,739.5h70a5,5,0,0,1,5,5v8a5,5,0,0,1,-5,5h-70a5,5,0,0,1,-5,-5v-8a5,5,0,0,1,5,-5z" stroke-width="3"></path><g id="node_text246" fill="black"><text id="kity_text_1045" text-rendering="inherit" font-size="12" dy=".8em" font-weight="bold" y="740.7000000476837" x="720.5">2.3 垂直类型</text></g></g><g id="minder_node126"><g id="node_expander122" style="cursor: pointer;" display="none"><path id="kity_path_1709" fill="white" stroke="gray" d="M949.5,530.5A6,6,0,1,1,937.5,530.5A6,6,0,1,1,949.5,530.5"></path><path id="kity_path_1710" fill="none" stroke="gray"></path></g><path id="node_outline123" fill="none" stroke="none" d="M954.5,521.5h36a5,5,0,0,1,5,5v8a5,5,0,0,1,-5,5h-36a5,5,0,0,1,-5,-5v-8a5,5,0,0,1,5,-5z" stroke-width="3"></path><g id="node_text123" fill="black"><text id="kity_text_799" text-rendering="inherit" font-size="12" dy=".8em" y="522.7000000476837" x="954.5">教育部</text></g></g><g id="minder_node127"><g id="node_expander123" style="cursor: pointer;" display="none"><path id="kity_path_1712" fill="white" stroke="gray" d="M949.5,556.5A6,6,0,1,1,937.5,556.5A6,6,0,1,1,949.5,556.5"></path><path id="kity_path_1713" fill="none" stroke="gray"></path></g><path id="node_outline124" fill="none" stroke="none" d="M954.5,547.5h36a5,5,0,0,1,5,5v8a5,5,0,0,1,-5,5h-36a5,5,0,0,1,-5,-5v-8a5,5,0,0,1,5,-5z" stroke-width="3"></path><g id="node_text124" fill="black"><text id="kity_text_801" text-rendering="inherit" font-size="12" dy=".8em" y="548.7000000476837" x="954.5">科技部</text></g></g><g id="minder_node128"><g id="node_expander124" style="cursor: pointer;" display="none"><path id="kity_path_1715" fill="white" stroke="gray" d="M949.5,582.5A6,6,0,1,1,937.5,582.5A6,6,0,1,1,949.5,582.5"></path><path id="kity_path_1716" fill="none" stroke="gray"></path></g><path id="node_outline125" fill="none" stroke="none" d="M954.5,573.5h84a5,5,0,0,1,5,5v8a5,5,0,0,1,-5,5h-84a5,5,0,0,1,-5,-5v-8a5,5,0,0,1,5,-5z" stroke-width="3"></path><g id="node_text125" fill="black"><text id="kity_text_803" text-rendering="inherit" font-size="12" dy=".8em" y="574.7000000476837" x="954.5">工业和信息化部</text></g></g><g id="minder_node267"><g id="node_expander266" style="cursor: pointer;" display="none"><path id="kity_path_2215" fill="white" stroke="gray" d="M949.5,608.5A6,6,0,1,1,937.5,608.5A6,6,0,1,1,949.5,608.5"></path><path id="kity_path_2216" fill="none" stroke="gray"></path></g><path id="node_outline267" fill="none" stroke="none" d="M954.5,599.5h60a5,5,0,0,1,5,5v8a5,5,0,0,1,-5,5h-60a5,5,0,0,1,-5,-5v-8a5,5,0,0,1,5,-5z" stroke-width="3"></path><g id="node_text267" fill="black"><text id="kity_text_2212" text-rendering="inherit" font-size="12" dy=".8em" y="600.7000000476837" x="954.5">知识产权局</text></g></g><g id="minder_node246"><g id="node_expander242" style="cursor: pointer;" display="none"><path id="kity_path_2069" fill="white" stroke="gray" d="M890.5,843.5A6,6,0,1,1,878.5,843.5A6,6,0,1,1,890.5,843.5"></path><path id="kity_path_2070" fill="none" stroke="gray"></path></g><path id="node_outline243" fill="none" stroke="none" d="M895.5,834.5h60a5,5,0,0,1,5,5v8a5,5,0,0,1,-5,5h-60a5,5,0,0,1,-5,-5v-8a5,5,0,0,1,5,-5z"></path><g id="node_text243" fill="black"><text id="kity_text_1039" text-rendering="inherit" font-size="12" dy=".8em" y="835.7000000476837" x="895.5">中国科技报</text></g></g><g id="minder_node247"><g id="node_expander243" style="cursor: pointer;" display="none"><path id="kity_path_2072" fill="white" stroke="gray" d="M890.5,869.5A6,6,0,1,1,878.5,869.5A6,6,0,1,1,890.5,869.5"></path><path id="kity_path_2073" fill="none" stroke="gray"></path></g><path id="node_outline244" fill="none" stroke="none" d="M895.5,860.5h60a5,5,0,0,1,5,5v8a5,5,0,0,1,-5,5h-60a5,5,0,0,1,-5,-5v-8a5,5,0,0,1,5,-5z"></path><g id="node_text244" fill="black"><text id="kity_text_1041" text-rendering="inherit" font-size="12" dy=".8em" y="861.7000000476837" x="895.5">科技世界网</text></g></g><g id="minder_node236"><g id="node_expander232" style="cursor: pointer;" display="none"><path id="kity_path_2039" fill="white" stroke="gray" d="M891.5,704.5A6,6,0,1,1,879.5,704.5A6,6,0,1,1,891.5,704.5"></path><path id="kity_path_2040" fill="none" stroke="gray"></path></g><path id="node_outline233" fill="none" stroke="none" d="M896.5,695.5h60a5,5,0,0,1,5,5v8a5,5,0,0,1,-5,5h-60a5,5,0,0,1,-5,-5v-8a5,5,0,0,1,5,-5z"></path><g id="node_text233" fill="black"><text id="kity_text_1019" text-rendering="inherit" font-size="12" dy=".8em" y="696.7000000476837" x="896.5">上海证券报</text></g></g><g id="minder_node237"><g id="node_expander233" style="cursor: pointer;" display="none"><path id="kity_path_2042" fill="white" stroke="gray" d="M891.5,730.5A6,6,0,1,1,879.5,730.5A6,6,0,1,1,891.5,730.5"></path><path id="kity_path_2043" fill="none" stroke="gray"></path></g><path id="node_outline234" fill="none" stroke="none" d="M896.5,721.5h60a5,5,0,0,1,5,5v8a5,5,0,0,1,-5,5h-60a5,5,0,0,1,-5,-5v-8a5,5,0,0,1,5,-5z" stroke-width="3"></path><g id="node_text234" fill="black"><text id="kity_text_1021" text-rendering="inherit" font-size="12" dy=".8em" y="722.7000000476837" x="896.5">中国证券报</text></g></g><g id="minder_node238"><g id="node_expander234" style="cursor: pointer;" display="none"><path id="kity_path_2045" fill="white" stroke="gray" d="M891.5,756.5A6,6,0,1,1,879.5,756.5A6,6,0,1,1,891.5,756.5"></path><path id="kity_path_2046" fill="none" stroke="gray"></path></g><path id="node_outline235" fill="none" stroke="none" d="M896.5,747.5h48a5,5,0,0,1,5,5v8a5,5,0,0,1,-5,5h-48a5,5,0,0,1,-5,-5v-8a5,5,0,0,1,5,-5z"></path><g id="node_text235" fill="black"><text id="kity_text_1023" text-rendering="inherit" font-size="12" dy=".8em" y="748.7000000476837" x="896.5">经济日报</text></g></g><g id="minder_node239"><g id="node_expander235" style="cursor: pointer;" display="none"><path id="kity_path_2048" fill="white" stroke="gray" d="M891.5,782.5A6,6,0,1,1,879.5,782.5A6,6,0,1,1,891.5,782.5"></path><path id="kity_path_2049" fill="none" stroke="gray"></path></g><path id="node_outline236" fill="none" stroke="none" d="M896.5,773.5h60a5,5,0,0,1,5,5v8a5,5,0,0,1,-5,5h-60a5,5,0,0,1,-5,-5v-8a5,5,0,0,1,5,-5z" stroke-width="3"></path><g id="node_text236" fill="black"><text id="kity_text_1025" text-rendering="inherit" font-size="12" dy=".8em" y="774.7000000476837" x="896.5">经济观察报</text></g></g><g id="minder_node240"><g id="node_expander236" style="cursor: pointer;" display="none"><path id="kity_path_2051" fill="white" stroke="gray" d="M891.5,808.5A6,6,0,1,1,879.5,808.5A6,6,0,1,1,891.5,808.5"></path><path id="kity_path_2052" fill="none" stroke="gray"></path></g><path id="node_outline237" fill="none" stroke="none" d="M896.5,799.5h60a5,5,0,0,1,5,5v8a5,5,0,0,1,-5,5h-60a5,5,0,0,1,-5,-5v-8a5,5,0,0,1,5,-5z"></path><g id="node_text237" fill="black"><text id="kity_text_1027" text-rendering="inherit" font-size="12" dy=".8em" y="800.7000000476837" x="896.5">中国经营报</text></g></g></g></g></svg>